<?xml version="1.0" encoding="UTF-8" standalone="no"?>
<!-- Created with Inkscape (http://www.inkscape.org/) -->

<svg
   version="1.1"
   id="svg1"
   width="1416.822"
   height="312.50137"
   viewBox="0 0 1416.822 312.50137"
   sodipodi:docname="stricto.svg"
   xmlns:inkscape="http://www.inkscape.org/namespaces/inkscape"
   xmlns:sodipodi="http://sodipodi.sourceforge.net/DTD/sodipodi-0.dtd"
   xmlns="http://www.w3.org/2000/svg"
   xmlns:svg="http://www.w3.org/2000/svg">
  <defs
     id="defs1" />
  <sodipodi:namedview
     id="namedview1"
     pagecolor="#ffffff"
     bordercolor="#cccccc"
     borderopacity="1"
     inkscape:showpageshadow="0"
     inkscape:pageopacity="1"
     inkscape:pagecheckerboard="0"
     inkscape:deskcolor="#d1d1d1"
     inkscape:zoom="0.82083907"
     inkscape:cx="589.64055"
     inkscape:cy="265.5819"
     inkscape:window-width="2494"
     inkscape:window-height="1403"
     inkscape:window-x="0"
     inkscape:window-y="0"
     inkscape:window-maximized="1"
     inkscape:current-layer="g1">
    <inkscape:page
       x="0"
       y="0"
       width="1416.822"
       height="312.50137"
       id="page2"
       margin="0"
       bleed="0" />
  </sodipodi:namedview>
  <g
     inkscape:groupmode="layer"
     inkscape:label="Image"
     id="g1"
     transform="translate(-17.126938,-66.239617)">
    <path
       style="fill:#5c70dd;fill-opacity:1"
       d="m 570.36454,112.88857 c -5.64993,-2.79666 -11.67094,-9.79301 -13.23485,-15.378752 -4.3393,-15.498437 7.70425,-30.926552 24.0236,-30.774906 18.47694,0.171695 30.28484,18.97381 22.05126,35.112968 -2.29293,4.49452 -8.05215,9.82571 -12.72276,11.77722 -5.08447,2.12442 -15.0765,1.7586 -20.11725,-0.73653 z"
       id="path21" />
    <path
       style="fill:#10244a;fill-opacity:1"
       d="m 1227.6269,331.36063 c -28.9894,-4.58629 -52.3394,-19.36131 -68.2943,-43.21405 -10.7765,-16.11102 -15.5641,-31.86901 -15.5394,-51.14658 0.02,-15.399 2.4329,-26.25603 8.8447,-39.79146 5.6293,-11.88343 11.3004,-19.80531 20.6299,-28.8172 37.298,-36.02848 93.0645,-36.48198 130.4915,-1.06117 20.4938,19.39526 30.494,42.04276 30.5426,69.16983 0.043,23.85135 -7.2912,43.74471 -22.8673,62.02723 -12.0168,14.10478 -30.8509,25.8907 -48.8077,30.54262 -7.8634,2.0371 -28.193,3.36769 -35,2.29078 z m 33.5,-28.95415 c 16.5493,-5.51616 31.8989,-18.32694 39.8143,-33.229 6.0606,-11.41004 7.688,-18.35047 7.6627,-32.67748 -0.021,-11.61953 -0.3196,-13.84952 -2.8159,-21 -7.1689,-20.53435 -22.3487,-36.0548 -42.6712,-43.62865 -7.245,-2.70011 -10.2171,-3.23412 -20.2694,-3.642 -17.3016,-0.70202 -28.0714,2.02555 -41.6149,10.53944 -29.0765,18.2785 -40.3705,56.42385 -25.7093,86.8329 9.289,19.26631 27.9769,34.21576 48.6294,38.90126 10.2822,2.33275 26.4335,1.41696 36.9743,-2.09647 z"
       id="path20" />
    <path
       style="fill:#0da467;fill-opacity:1"
       d="m 1207.9475,259.29069 c -10.711,-10.63563 -15.8206,-16.40801 -15.8206,-17.87264 0,-2.50704 8.0765,-10.41805 10.636,-10.41805 0.9244,0 6.4469,4.71102 12.2723,10.46892 l 10.5917,10.46893 24.0469,-23.96893 C 1262.8995,214.78602 1274.3263,204 1275.0666,204 c 1.9839,0 11.0603,9.42206 11.0603,11.48147 0,0.97195 -4.2124,5.87374 -9.3608,10.89286 -5.1484,5.01912 -18.3651,18.01317 -29.3704,28.87567 -11.159,11.01423 -20.8098,19.75 -21.8187,19.75 -0.9971,0 -8.9087,-7.04979 -17.6295,-15.70931 z"
       id="path19" />
    <path
       style="fill:#10244a;fill-opacity:1"
       d="M 557.12694,241.25676 V 140 h 24.00476 24.00476 l -0.25476,100.96369 -0.25476,100.96369 -23.75,0.29307 -23.75,0.29308 z"
       id="path18" />
    <path
       style="fill:#10244a;fill-opacity:1"
       d="M 397.4941,341.50581 C 397.28364,340.95261 397.22743,295.5 397.36919,240.5 l 0.25775,-100 23.75,-0.2681 23.75,-0.2681 v 15.21388 15.21388 l 3.13227,-4.94578 c 7.81281,-12.33623 23.0421,-22.97458 38.86773,-27.15088 6.73372,-1.77699 29.73081,-2.52139 33.25,-1.07628 1.59304,0.65416 1.75,2.72348 1.75,23.07192 v 22.3533 l -14.25,-0.0719 c -16.24315,-0.082 -21.80949,0.98792 -32.25,6.19871 -9.04243,4.51303 -19.05603,14.52322 -23.3463,23.33837 -6.56561,13.49024 -6.50232,12.82754 -7.10525,74.391 l -0.54845,56 -23.37509,0.006 c -14.75845,0.004 -23.51615,-0.36496 -23.75775,-1 z"
       id="path17" />
    <path
       style="fill:#10244a;fill-opacity:1"
       d="M 949.96142,344.50357 C 922.29639,339.24466 904.50758,324.08068 895.9948,298.5 c -2.30796,-6.93537 -2.33239,-7.50553 -2.64624,-61.75 L 893.03178,182 h -17.45242 -17.45242 v -20.97639 -20.97638 l 17.25,-0.27362 17.25,-0.27361 0.26313,-34.25 L 893.1532,71 h 23.48687 23.48687 v 34.5 34.5 h 29.5 29.5 v 21 21 h -29.55255 -29.55254 l 0.3354,48.75 c 0.30238,43.94927 0.5119,49.2123 2.12765,53.44453 2.54313,6.66137 8.5699,13.08985 14.85436,15.84447 6.79595,2.97882 20.35619,3.74251 30.12734,1.69673 4.84074,-1.0135 6.9463,-1.11107 7.20454,-0.33387 1.5679,4.71884 9.38976,37.99743 9.01836,38.36892 -0.2605,0.26041 -4.65606,1.57556 -9.76802,2.92257 -11.9278,3.14296 -32.49388,3.98985 -43.96006,1.81022 z"
       id="path16" />
    <path
       style="fill:#10244a;fill-opacity:1"
       d="m 314.12694,345.34962 c -25.23067,-3.3797 -45.07093,-16.79072 -54.70448,-36.97748 -6.74139,-14.12635 -7.26761,-19.6252 -7.28238,-76.09853 l -0.0131,-50.22638 -17.25,-0.27362 -17.25,-0.27361 V 161 140.5 l 17.25,-0.27361 17.25,-0.27362 V 105.47639 71 h 24 24 v 34.5 34.5 h 29 29 v 21 21 h -29 -29 v 47.28207 c 0,51.28647 0.25183,54.14481 5.42835,61.61453 7.18651,10.37015 24.50207,14.79434 41.89025,10.70311 5.63915,-1.32682 5.84316,-1.3032 6.61484,0.76563 1.84628,4.94978 9.26792,36.76663 8.70706,37.32749 -0.33689,0.33689 -4.55632,1.6915 -9.37651,3.01024 -6.6831,1.82841 -11.96938,2.48292 -22.26399,2.75655 -7.425,0.19735 -15.075,0.14785 -17,-0.11 z"
       id="path15" />
    <path
       style="fill:#10244a;fill-opacity:1"
       d="M 732.62694,346.87264 C 664.77221,338.3969 622.53973,269.8842 645.5261,205.57113 c 7.93135,-22.19092 22.09805,-40.07137 42.11037,-53.14943 35.93297,-23.4822 85.30263,-23.41076 121.64257,0.17603 7.66669,4.97614 25.87043,22.31494 25.81724,24.59056 -0.0169,0.72144 -6.20436,5.71701 -13.75,11.10127 -7.54564,5.38427 -15.6298,11.20071 -17.9648,12.92543 l -4.24547,3.13586 -5.49429,-6.07139 c -7.15216,-7.90339 -14.90631,-12.96117 -25.47061,-16.61367 -7.12582,-2.46367 -10.12641,-2.95538 -18.0756,-2.96209 -17.55462,-0.0148 -30.35819,4.9122 -42.2926,16.27486 -15.05641,14.33509 -21.93535,33.14739 -19.60854,53.6248 3.70917,32.64323 28.20023,55.37786 59.93257,55.63438 17.93104,0.14495 30.76751,-5.00422 43.32795,-17.3804 l 7.94574,-7.82917 17.86315,12.70719 c 9.82474,6.98895 17.86316,13.27272 17.86316,13.96392 0,2.02802 -16.96529,18.64328 -23.5,23.01515 -22.83314,15.27588 -50.73401,21.68891 -79,18.15821 z"
       id="path14" />
    <path
       style="fill:#10244a;fill-opacity:1;stroke:none"
       d="m 86.711917,346.51582 c -18.647509,-2.67371 -37.055836,-9.17304 -50.204538,-17.72546 -7.101342,-4.61899 -19.380441,-14.6039 -19.380441,-15.75947 0,-0.54895 22.333901,-26.60165 26.502361,-30.91524 1.131794,-1.1712 2.573898,-0.39534 9.365881,5.03892 18.547947,14.84019 42.384318,21.86012 64.66938,19.04546 18.85334,-2.38123 27.47225,-8.94534 27.45579,-20.91019 -0.008,-5.82426 -2.24292,-9.5392 -8.10882,-13.47879 -5.07431,-3.40795 -14.03709,-6.2195 -38.884592,-12.19779 -23.013115,-5.53694 -36.596997,-9.8275 -45,-14.21356 C 33.287687,235.04433 23.162964,219.51196 22.881444,199 c -0.228237,-16.62974 4.900475,-28.73465 17.469719,-41.23247 6.429272,-6.39273 9.552506,-8.59673 18.026218,-12.72073 13.774345,-6.70371 23.771977,-9.05304 41.523797,-9.75764 23.121462,-0.91773 40.696312,2.43575 58.885592,11.23603 8.30331,4.01728 23.13988,14.11869 26.26153,17.88006 1.0454,1.25963 -0.87652,3.94926 -12.00275,16.79726 -7.2861,8.41362 -13.58895,15.43598 -14.00632,15.60525 -0.41737,0.16927 -3.60588,-1.99539 -7.08557,-4.81035 -7.48548,-6.05551 -19.76307,-12.31393 -28.82672,-14.69422 -9.79829,-2.57322 -26.481672,-2.32166 -35.793658,0.53971 -12.647329,3.88626 -19.039278,12.09595 -16.365651,21.01972 2.803746,9.35807 10.354127,12.99832 45.732509,22.04891 14.80974,3.78866 31.17125,8.58851 36.35891,10.66632 26.90809,10.77745 40.09248,28.18359 40.05602,52.88225 -0.0388,26.27693 -17.69821,47.84487 -47.01669,57.42279 -16.37764,5.35034 -40.99097,7.27051 -59.386463,4.63293 z"
       id="path13" />
    <path
       style="fill:#5c70dd;fill-opacity:1"
       d="m 1118.1157,376.12833 c -3.0311,-0.97027 -7.6242,-3.00245 -10.2068,-4.51596 -6.2872,-3.68449 -14.9991,-13.26453 -18.183,-19.99476 -4.9675,-10.50042 -5.5668,-15.64813 -5.6016,-48.11761 -0.041,-38.52617 -1.3317,-45.22297 -10.7156,-55.6098 -4.4439,-4.91893 -7.7322,-6.6838 -16.7818,-9.007 -8.2595,-2.12036 -11.059,-4.75938 -12.0485,-11.35779 -1.4106,-9.40712 1.7426,-15.68372 8.8521,-17.62035 10.8377,-2.95215 13.8613,-4.29809 18.1643,-8.08568 4.6789,-4.11859 8.271,-10.01157 10.557,-17.31938 0.8478,-2.71004 1.4665,-15.93212 1.9186,-41 0.6666,-36.96321 0.6699,-37.00674 3.3284,-43.780068 C 1095.8452,78.199861 1111.9289,67 1134.3867,67 c 9.6928,0 12.9189,1.490036 15.1162,6.981819 2.0436,5.107459 2.0543,8.902257 0.039,13.938492 -2.0924,5.229559 -4.5165,6.645657 -12.9131,7.543603 -8.3114,0.888835 -13.2482,3.191554 -17.2495,8.045776 -5.1914,6.2981 -5.4715,8.36092 -6.2438,45.99031 -0.7696,37.4894 -1.0923,40.01861 -6.5231,51.11879 -3.5625,7.28151 -10.9514,15.1203 -18.3966,19.51672 l -6.1565,3.63552 5.6964,3.21484 c 7.8593,4.43555 14.6254,11.72083 18.8399,20.28559 5.7033,11.5902 6.494,17.51367 6.5137,48.79488 0.01,15.26934 0.4979,30.21327 1.0945,33.5 2.3305,12.83772 9.1175,19.06332 21.9558,20.13963 5.5705,0.46702 7.8238,1.14405 10.0544,3.02097 5.8036,4.88339 6.2936,17.04596 0.904,22.43564 -2.7591,2.75902 -3.1228,2.83593 -13.1644,2.78364 -6.9866,-0.0364 -12.1095,-0.62439 -15.8381,-1.81789 z"
       id="path12" />
    <path
       style="fill:#5c70dd;fill-opacity:1"
       d="m 1333.0084,377.57198 c -7.7649,-4.44237 -7.8249,-22.32081 -0.089,-26.46105 1.0449,-0.55919 5.2624,-1.43419 9.3723,-1.94444 11.4228,-1.41814 14.9241,-3.75376 19.0431,-12.70303 2.1972,-4.77396 2.3065,-6.28061 2.8614,-39.46346 0.4882,-29.19705 0.8493,-35.3454 2.3491,-40 4.3529,-13.50946 12.5355,-24.13519 23.2365,-30.17443 l 5.4757,-3.09031 -4.3154,-2.53168 c -11.6303,-6.82302 -19.4405,-16.41655 -23.6096,-29.00012 -2.4813,-7.48921 -2.5701,-8.69079 -3.1952,-43.20346 -0.446,-24.62104 -1.0229,-36.41935 -1.8827,-38.5 -3.7866,-9.16353 -10.7559,-14.449042 -19.1936,-14.556442 -10.6778,-0.135913 -15.9371,-5.035686 -15.9306,-14.841441 0.01,-11.119998 5.9437,-15.83795 18.4912,-14.696134 19.4338,1.768473 33.2622,10.212683 41.1597,25.133824 6.4059,12.102893 6.5872,13.438153 7.3277,53.960193 0.3837,20.99876 1.1248,38.30971 1.7136,40.02847 4.5573,13.30332 16.6502,23.47153 27.9144,23.47153 1.236,0 3.8119,1.47557 5.7241,3.27904 2.6546,2.50358 3.6477,4.41903 4.1997,8.09953 1.5055,10.03957 -2.9265,16.7354 -12.3667,18.68343 -12.7958,2.64045 -20.9488,10.13555 -25.4643,23.40953 -0.5733,1.6852 -1.33,18.77438 -1.706,38.52847 -0.6523,34.26796 -0.7628,35.76368 -3.1818,43.09762 -7.0168,21.27263 -23.0258,33.18915 -46.3153,34.47539 -6.8785,0.37989 -9.6172,0.14393 -11.6185,-1.00103 z"
       id="path1" />
  </g>
</svg>
